<svg xmlns="http://www.w3.org/2000/svg" xmlns:xlink="http://www.w3.org/1999/xlink" viewBox="0 0 155.77 41"><defs><style>.cls-1{fill:url(#linear-gradient);}.cls-2{opacity:0.08;}.cls-3{fill:url(#linear-gradient-2);}.cls-4{fill:#fff;}.cls-5{fill:#282828;}</style><linearGradient id="linear-gradient" x1="31.05" y1="36.91" x2="36.49" y2="36.91" gradientUnits="userSpaceOnUse"><stop offset="0" stop-color="#240056"/><stop offset="1" stop-color="#310577"/></linearGradient><linearGradient id="linear-gradient-2" x1="5.2" y1="5.2" x2="37.17" y2="37.18" xlink:href="#linear-gradient"/></defs><g id="Layer_2" data-name="Layer 2"><g id="Layer_1-2" data-name="Layer 1"><g id="Layer_2-2" data-name="Layer 2"><g id="Layer_1-2-2" data-name="Layer 1-2"><circle class="cls-1" cx="33.77" cy="36.91" r="2.72"/><g class="cls-2"><path d="M22.64,9.85l-6.8,11.27c-.44.68-.1,1.21.68,1.21H21a1,1,0,0,1,1.07.88.84.84,0,0,1-.1.48l-3.25,9.24c-.25.78-.15.82.34.14l8.4-12.78c.44-.68.15-1.21-.63-1.21H21.43a1,1,0,0,1-1.07-.83,1,1,0,0,1,.1-.53L23,9.94C23.23,9.21,23.08,9.17,22.64,9.85Z"/></g><path class="cls-3" d="M28.57,38a6.18,6.18,0,0,1,6.17-6.17,7,7,0,0,1,2.43.48,20.42,20.42,0,1,0-8.5,6.95A5.32,5.32,0,0,1,28.57,38Z"/><path class="cls-4" d="M22.06,9.17l-6.8,11.27c-.44.68-.1,1.21.68,1.21h4.47a1,1,0,0,1,1.07.88.84.84,0,0,1-.1.48l-3.26,9.24c-.24.77-.14.82.34.14l8.41-12.78c.44-.63.15-1.21-.63-1.21h-5.4a.93.93,0,0,1-1.06-.83,1,1,0,0,1,.09-.53L22.4,9.26c.19-.68.05-.77-.34-.09Z"/><rect class="cls-4" x="11.27" y="30.35" width="0.24" height="3.5"/><rect class="cls-4" x="9.62" y="31.96" width="3.5" height="0.24"/><polygon class="cls-4" points="3.74 14.32 6.41 13.93 5.49 16.45 3.74 14.32"/><path class="cls-4" d="M37.9,16.7a2.58,2.58,0,0,0-3.45,0l.39.48a1.94,1.94,0,0,1,2.62,0,3,3,0,0,0,3.31.49,3.19,3.19,0,0,1-.1-.68A2.29,2.29,0,0,1,37.9,16.7Z"/><path class="cls-4" d="M37.9,20.15a2.58,2.58,0,0,0-3.45,0l.39.48a1.94,1.94,0,0,1,2.62,0A3,3,0,0,0,41,21v-.78A2.24,2.24,0,0,1,37.9,20.15Z"/><path class="cls-4" d="M37.9,18.4a2.58,2.58,0,0,0-3.45,0l.39.53a1.94,1.94,0,0,1,2.62,0,3,3,0,0,0,3.5.39c0-.24-.05-.48-.05-.73A2.28,2.28,0,0,1,37.9,18.4Z"/><path class="cls-4" d="M37.46,17.18a3,3,0,0,0,3.31.49,3.19,3.19,0,0,1-.1-.68,2.3,2.3,0,0,1-2.77-.34,2.58,2.58,0,0,0-3.45,0l.39.48A2,2,0,0,1,37.46,17.18Z"/><path class="cls-4" d="M41,20.29a2.36,2.36,0,0,1-3.11-.14,2.58,2.58,0,0,0-3.45,0l.39.48a1.94,1.94,0,0,1,2.62,0,3,3,0,0,0,3.5.39v-.44C40.91,20.44,41,20.44,41,20.29Z"/><path class="cls-4" d="M37.46,18.93a3,3,0,0,0,3.5.39c0-.24-.05-.48-.05-.73a2.41,2.41,0,0,1-3-.19,2.58,2.58,0,0,0-3.45,0l.39.53A1.94,1.94,0,0,1,37.46,18.93Z"/></g></g><path class="cls-5" d="M56.53,26.27A4.3,4.3,0,0,1,54.7,28a6.34,6.34,0,0,1-3,.65A7.61,7.61,0,0,1,48.61,28a5.45,5.45,0,0,1-2.19-1.72,4.87,4.87,0,0,1-.93-2.54h2.93a3,3,0,0,0,.94,1.89,3.09,3.09,0,0,0,2.22.79,2.64,2.64,0,0,0,1.94-.67,2.34,2.34,0,0,0,.68-1.73,2.28,2.28,0,0,0-.5-1.5,3.6,3.6,0,0,0-1.25-.92c-.5-.22-1.18-.48-2-.77a16.36,16.36,0,0,1-2.58-1,4.54,4.54,0,0,1-1.69-1.46,4.16,4.16,0,0,1-.7-2.52,4.29,4.29,0,0,1,.67-2.4A4.41,4.41,0,0,1,48,11.87a7,7,0,0,1,2.88-.56A6.33,6.33,0,0,1,55,12.56a4.74,4.74,0,0,1,1.74,3.26h-3a2.94,2.94,0,0,0-.9-1.64,3.24,3.24,0,0,0-3.86-.1,2.12,2.12,0,0,0-.69,1.69,2.11,2.11,0,0,0,.48,1.43,3.32,3.32,0,0,0,1.21.89c.49.22,1.16.47,2,.76a16.12,16.12,0,0,1,2.63,1,4.68,4.68,0,0,1,1.73,1.5A4.34,4.34,0,0,1,57.13,24,4.63,4.63,0,0,1,56.53,26.27Z"/><path class="cls-5" d="M68.24,16A4.73,4.73,0,0,1,70,18.32V15.25h2.74V28.47H70V25.4a4.73,4.73,0,0,1-1.8,2.35,5.24,5.24,0,0,1-3.07.89,5.85,5.85,0,0,1-3.09-.82A5.58,5.58,0,0,1,60,25.47a8,8,0,0,1-.77-3.62,8,8,0,0,1,.77-3.6,5.6,5.6,0,0,1,2.12-2.36,5.94,5.94,0,0,1,3.09-.81A5.24,5.24,0,0,1,68.24,16Zm-5.15,2.67A4.51,4.51,0,0,0,62,21.85a4.48,4.48,0,0,0,1.09,3.2A3.8,3.8,0,0,0,66,26.21a4,4,0,0,0,2.06-.54,3.77,3.77,0,0,0,1.44-1.52,4.82,4.82,0,0,0,.53-2.3,4.88,4.88,0,0,0-.53-2.3A3.8,3.8,0,0,0,68.07,18,4,4,0,0,0,66,17.48,3.83,3.83,0,0,0,63.09,18.64Z"/><path class="cls-5" d="M84.44,16a4.73,4.73,0,0,1,1.8,2.35V15.25H89V28.47H86.24V25.4a4.73,4.73,0,0,1-1.8,2.35,5.24,5.24,0,0,1-3.07.89,5.85,5.85,0,0,1-3.09-.82,5.58,5.58,0,0,1-2.12-2.35,8,8,0,0,1-.77-3.62,8,8,0,0,1,.77-3.6,5.6,5.6,0,0,1,2.12-2.36,5.94,5.94,0,0,1,3.09-.81A5.24,5.24,0,0,1,84.44,16Zm-5.15,2.67a4.51,4.51,0,0,0-1.09,3.21,4.48,4.48,0,0,0,1.09,3.2,3.8,3.8,0,0,0,2.92,1.16,4,4,0,0,0,2.06-.54,3.77,3.77,0,0,0,1.44-1.52,4.82,4.82,0,0,0,.53-2.3,4.88,4.88,0,0,0-.53-2.3A3.8,3.8,0,0,0,84.27,18a4,4,0,0,0-2.06-.54A3.83,3.83,0,0,0,79.29,18.64Z"/><path class="cls-5" d="M100.34,16.27a5,5,0,0,1,1.72,3.18h-2.6a2.8,2.8,0,0,0-.92-1.74,3,3,0,0,0-2-.66,2.35,2.35,0,0,0-1.59.49,1.67,1.67,0,0,0-.57,1.33,1.33,1.33,0,0,0,.41,1,3.2,3.2,0,0,0,1,.6q.61.21,1.74.48a16.75,16.75,0,0,1,2.41.69,3.9,3.9,0,0,1,1.59,1.14,3.19,3.19,0,0,1,.66,2.13,3.32,3.32,0,0,1-1.26,2.69,5.24,5.24,0,0,1-3.4,1,6.49,6.49,0,0,1-4-1.15,4.74,4.74,0,0,1-1.84-3.22h2.66a2.53,2.53,0,0,0,1,1.75,3.45,3.45,0,0,0,2.21.67,2.23,2.23,0,0,0,1.55-.51,1.7,1.7,0,0,0,.57-1.31,1.44,1.44,0,0,0-.44-1.1,2.82,2.82,0,0,0-1.08-.64,15.19,15.19,0,0,0-1.77-.47A19.72,19.72,0,0,1,94,22a3.63,3.63,0,0,1-1.54-1.09,3.12,3.12,0,0,1-.63-2,3.41,3.41,0,0,1,1.25-2.73,5.37,5.37,0,0,1,3.5-1A5.55,5.55,0,0,1,100.34,16.27Z"/><path class="cls-5" d="M107.67,10.71V28.47h-2.73V10.71Z"/><path class="cls-5" d="M119.36,16a4.73,4.73,0,0,1,1.8,2.35V15.25h2.74V28.47h-2.74V25.4a4.73,4.73,0,0,1-1.8,2.35,5.24,5.24,0,0,1-3.07.89,5.83,5.83,0,0,1-3.09-.82,5.58,5.58,0,0,1-2.12-2.35,8,8,0,0,1-.77-3.62,8,8,0,0,1,.77-3.6,5.6,5.6,0,0,1,2.12-2.36,5.91,5.91,0,0,1,3.09-.81A5.24,5.24,0,0,1,119.36,16Zm-5.15,2.67a4.51,4.51,0,0,0-1.09,3.21,4.48,4.48,0,0,0,1.09,3.2,3.8,3.8,0,0,0,2.92,1.16,4,4,0,0,0,2.06-.54,3.77,3.77,0,0,0,1.44-1.52,4.82,4.82,0,0,0,.53-2.3,4.88,4.88,0,0,0-.53-2.3A3.8,3.8,0,0,0,119.19,18a4,4,0,0,0-2.06-.54A3.83,3.83,0,0,0,114.21,18.64Z"/><path class="cls-5" d="M138.27,16.52a6,6,0,0,1,1.39,4.25v7.7h-2.73V21.05a3.87,3.87,0,0,0-.91-2.74,3.28,3.28,0,0,0-2.5-1,3.43,3.43,0,0,0-2.62,1.05,4.31,4.31,0,0,0-1,3.06v7h-2.74V15.25h2.74v2.9a4.38,4.38,0,0,1,1.78-2.3,5.08,5.08,0,0,1,2.87-.82A4.84,4.84,0,0,1,138.27,16.52Z"/><path class="cls-5" d="M151.23,16A4.63,4.63,0,0,1,153,18.32V10.71h2.76V28.47H153V25.4a4.63,4.63,0,0,1-1.78,2.35,5.24,5.24,0,0,1-3.07.89,5.85,5.85,0,0,1-3.09-.82A5.58,5.58,0,0,1,143,25.47a8,8,0,0,1-.77-3.62,8,8,0,0,1,.77-3.6,5.6,5.6,0,0,1,2.12-2.36,5.94,5.94,0,0,1,3.09-.81A5.24,5.24,0,0,1,151.23,16Zm-5.15,2.67A4.51,4.51,0,0,0,145,21.85a4.48,4.48,0,0,0,1.09,3.2A3.8,3.8,0,0,0,149,26.21a4,4,0,0,0,2.06-.54,3.77,3.77,0,0,0,1.44-1.52,4.82,4.82,0,0,0,.53-2.3,4.88,4.88,0,0,0-.53-2.3A3.8,3.8,0,0,0,151.06,18a4,4,0,0,0-2.06-.54A3.83,3.83,0,0,0,146.08,18.64Z"/></g></g></svg>